<?xml version="1.0" encoding="UTF-8"?>
<svg id="Layer_2" data-name="Layer 2" xmlns="http://www.w3.org/2000/svg" viewBox="0 0 758.45 495.24">
    <defs>
        <style>
            .cls-1 {
            fill: none;
            stroke: #0c0c0c;
            stroke-miterlimit: 10;
            stroke-width: 40px;
            }

            .cls-2 {
            fill: #0c0c0c;
            }
        </style>
    </defs>
    <path class="cls-2"
          d="M13.23,195.74L247.27,6.81c11.08-8.95,26.06-9.09,37.27-.35l242.1,188.63c10.05,7.83,15.2,21.34,13.27,34.8l-10.35,72.24c-1.43,10-6.62,18.85-14.27,24.35l-227.1,163.06c-10.67,7.66-24.41,7.6-35.03-.15L20.8,319.65c-8.01-5.85-13.25-15.38-14.28-25.97L.19,228.41c-1.23-12.7,3.74-25.17,13.04-32.67Z"/>
    <path class="cls-1"
          d="M420.35,67.71l49.78-40.05c10.15-8.16,23.86-8.29,34.13-.32l221.68,172.13c9.2,7.14,13.91,19.47,12.15,31.76l-6.03,41.99-3.44,23.94c-1.31,9.12-6.06,17.2-13.07,22.22l-207.95,148.8c-9.77,6.99-22.35,6.94-32.08-.14l-50.8-36.98"/>
</svg>