<?xml version="1.0" encoding="UTF-8"?>
<svg xmlns="http://www.w3.org/2000/svg" viewBox="0 0 1920 1080">
    <defs>
        <style>
            .cls-1 {
            stroke: url(#linear-gradient-2);
            }

            .cls-1, .cls-2 {
            fill: none;
            stroke-miterlimit: 10;
            stroke-width: 12px;
            }

            .cls-2 {
            stroke: #333;
            }

            .cls-3 {
            fill: url(#linear-gradient);
            }
        </style>
        <linearGradient id="linear-gradient" x1="1921" y1="540" x2="0" y2="540" gradientUnits="userSpaceOnUse">
            <stop offset=".02" stop-color="#1a1a1a"/>
            <stop offset="1" stop-color="#000" stop-opacity="0"/>
        </linearGradient>
        <linearGradient id="linear-gradient-2" x1="1092.31" y1="461.97" x2="1644.61" y2="461.97"
                        gradientTransform="translate(-106.37 575.87) rotate(-23.8)" gradientUnits="userSpaceOnUse">
            <stop offset="0" stop-color="#d49028"/>
            <stop offset="1" stop-color="#d400cf"/>
        </linearGradient>
    </defs>
    <g id="Layer_3">
        <rect class="cls-3" width="1921" height="1080"/>
    </g>
    <g id="Layer_2">
        <path class="cls-1"
              d="M1076.13,502.52l137.89-267.31c6.53-12.66,20.17-18.83,33.96-15.36l297.63,74.89c12.35,3.11,22.51,13.39,26.18,26.49l19.69,70.28c2.72,9.73,1.55,19.92-3.24,28.03l-141.98,240.84c-6.67,11.32-19.27,16.81-32.12,14l-281.09-61.54c-9.69-2.12-18.33-8.72-23.54-18l-32.13-57.16c-6.25-11.12-6.73-24.54-1.25-35.16Z"/>
        <rect class="cls-2" x="1655.47" y="806.02" width="278.98" height="278.98" rx="11.95" ry="11.95"
              transform="translate(808.24 -827.13) rotate(33.12)"/>
        <path class="cls-2"
              d="M1506.58,863.7l-204.32,58.47c-5.4,1.55-10.41-3.41-8.93-8.82l56.33-206.47c1.46-5.34,8.13-7.11,12.05-3.2l147.99,147.99c3.88,3.88,2.17,10.51-3.11,12.02Z"/>
        <path class="cls-2"
              d="M1711.58,57.46l-47.9,214.44c-1.4,6.26-8.61,9.21-13.99,5.73l-186.62-120.65c-3.38-2.18-4.95-6.3-3.88-10.18l55.35-201.46c1.62-5.88,8.4-8.6,13.63-5.46l179.17,107.67c3.4,2.04,5.11,6.03,4.25,9.91Z"/>
        <path class="cls-2"
              d="M1231.88,792.02l-52.87,16.42c-4.11,1.28-8.6.26-11.76-2.66l-40.66-37.57c-3.16-2.92-4.53-7.31-3.58-11.51l12.21-54c.95-4.2,4.07-7.58,8.18-8.85l52.87-16.42c4.11-1.28,8.6-.26,11.76,2.66l40.66,37.57c3.16,2.92,4.53,7.31,3.58,11.51l-12.21,54c-.95,4.2-4.07,7.58-8.18,8.85Z"/>
        <path class="cls-2"
              d="M1632.35,751.28l-84.55-50.29c-3.88-2.31-5.83-6.85-4.83-11.24l21.7-95.95c.99-4.4,4.71-7.66,9.2-8.07l97.96-9.02c4.49-.41,8.74,2.11,10.52,6.26l38.85,90.38c1.78,4.14.69,8.96-2.7,11.94l-73.95,64.87c-3.39,2.97-8.31,3.43-12.19,1.12Z"/>
        <path class="cls-2"
              d="M1728.82,530.77l-81.87-176.45c-2.71-5.85,2.01-12.42,8.42-11.71l194.69,21.64c6.32.7,9.52,7.97,5.78,13.1l-112.82,154.82c-3.72,5.1-11.54,4.33-14.2-1.39Z"/>
        <path class="cls-2"
              d="M1360.12,198.17l-48.59-28.9c-3.47-2.06-5.21-6.12-4.32-10.06l12.47-55.14c.89-3.94,4.21-6.85,8.23-7.22l56.29-5.18c4.02-.37,7.82,1.89,9.41,5.6l22.32,51.93c1.59,3.71.62,8.02-2.42,10.68l-42.49,37.28c-3.03,2.66-7.44,3.07-10.9,1Z"/>
        <rect class="cls-2" x="1826.19" y="-14.47" width="292.8" height="292.8" rx="11.95" ry="11.95"
              transform="translate(392.57 -1056.37) rotate(33.12)"/>
        <polygon class="cls-2"
                 points="2120.37 771.88 1938.57 828.37 1798.75 699.16 1840.74 513.47 2022.55 456.99 2162.36 586.19 2120.37 771.88"/>
        <path class="cls-2"
              d="M1559.75,1072.83l-117.32,70.19c-3.43,2.05-7.84.06-8.58-3.86l-25.44-135.91c-.46-2.46.73-4.93,2.93-6.11l114.65-61.27c3.35-1.79,7.48.11,8.3,3.82l28.11,126.99c.53,2.41-.54,4.89-2.65,6.16Z"/>
    </g>
</svg>